<?xml version="1.0" encoding="UTF-8"?>
<svg xmlns="http://www.w3.org/2000/svg" viewBox="0 0 64 64" fill="none">
  <defs>
    <linearGradient id="g" x1="0" y1="0" x2="64" y2="64" gradientUnits="userSpaceOnUse">
      <stop offset="0" stop-color="#6EE7F9"/>
      <stop offset="1" stop-color="#2563EB"/>
    </linearGradient>
    <linearGradient id="g2" x1="0" y1="0" x2="0" y2="24" gradientUnits="userSpaceOnUse">
      <stop offset="0" stop-color="#1F2937"/>
      <stop offset="1" stop-color="#111827"/>
    </linearGradient>
  </defs>
  <!-- Rounded square background -->
  <rect x="2" y="2" width="60" height="60" rx="14" fill="url(#g)"/>
  <!-- Download arrow -->
  <g transform="translate(0,2)">
    <path d="M32 12 v18" stroke="#ffffff" stroke-width="5" stroke-linecap="round"/>
    <path d="M22 26 l10 10 l10 -10" fill="none" stroke="#ffffff" stroke-width="5" stroke-linecap="round" stroke-linejoin="round"/>
  </g>
  <!-- Tray -->
  <path d="M16 44 h32 a4 4 0 0 1 4 4 v4 a4 4 0 0 1 -4 4 H16 a4 4 0 0 1 -4 -4 v-4 a4 4 0 0 1 4 -4 z" fill="rgba(255,255,255,0.9)"/>
  <path d="M20 46 h24 a2 2 0 0 1 2 2 v0 a2 2 0 0 1 -2 2 H20 a2 2 0 0 1 -2 -2 v0 a2 2 0 0 1 2 -2 z" fill="url(#g2)"/>
</svg>
